<svg id="Capa_1" enable-background="new 0 0 511.937 511.937" height="512" viewBox="0 0 511.937 511.937" width="512"
     xmlns="http://www.w3.org/2000/svg">
    <g>
        <path d="m99.604 161.986c6.538 0 9.463 1.109 13.165 2.513 4.312 1.635 9.197 3.487 18.483 3.487s14.172-1.853 18.483-3.487c3.702-1.403 6.627-2.513 13.166-2.513 6.538 0 9.464 1.109 13.166 2.513 4.312 1.635 9.197 3.487 18.484 3.487 9.286 0 14.172-1.853 18.483-3.487 3.702-1.403 6.627-2.513 13.166-2.513 6.54 0 9.465 1.109 13.169 2.513 4.311 1.635 9.197 3.487 18.484 3.487s14.174-1.853 18.485-3.487c3.704-1.403 6.629-2.513 13.169-2.513 4.143 0 7.5-3.357 7.5-7.5s-3.357-7.5-7.5-7.5c-9.287 0-14.174 1.853-18.485 3.487-3.704 1.403-6.629 2.513-13.169 2.513-6.539 0-9.464-1.109-13.167-2.513-4.312-1.635-9.198-3.487-18.486-3.487-9.287 0-14.173 1.853-18.484 3.487-3.702 1.404-6.627 2.513-13.165 2.513s-9.463-1.109-13.166-2.513c-4.312-1.635-9.197-3.487-18.484-3.487s-14.173 1.853-18.484 3.487c-3.702 1.404-6.627 2.513-13.165 2.513s-9.463-1.109-13.165-2.513c-4.312-1.635-9.197-3.487-18.483-3.487-4.143 0-7.5 3.357-7.5 7.5s3.357 7.5 7.5 7.5z"/>
        <path d="m99.604 247.783c6.538 0 9.463 1.109 13.165 2.513 4.312 1.635 9.197 3.487 18.483 3.487s14.172-1.853 18.483-3.487c3.702-1.403 6.627-2.513 13.166-2.513 6.538 0 9.464 1.109 13.166 2.513 4.312 1.635 9.197 3.487 18.484 3.487 9.286 0 14.172-1.853 18.483-3.487 3.702-1.403 6.627-2.513 13.166-2.513 6.54 0 9.465 1.109 13.169 2.513 4.311 1.635 9.197 3.487 18.484 3.487s14.174-1.853 18.485-3.487c3.704-1.403 6.629-2.513 13.169-2.513 4.143 0 7.5-3.357 7.5-7.5s-3.357-7.5-7.5-7.5c-9.287 0-14.174 1.853-18.485 3.487-3.704 1.403-6.629 2.513-13.169 2.513-6.539 0-9.464-1.109-13.167-2.513-4.312-1.635-9.198-3.487-18.486-3.487-9.287 0-14.173 1.853-18.484 3.487-3.702 1.404-6.627 2.513-13.165 2.513s-9.463-1.109-13.166-2.513c-4.312-1.635-9.197-3.487-18.484-3.487s-14.173 1.853-18.484 3.487c-3.702 1.404-6.627 2.513-13.165 2.513s-9.463-1.109-13.165-2.513c-4.312-1.635-9.197-3.487-18.483-3.487-4.143 0-7.5 3.357-7.5 7.5s3.357 7.5 7.5 7.5z"/>
        <path d="m99.604 333.58c6.538 0 9.463 1.109 13.165 2.513 4.312 1.635 9.197 3.487 18.483 3.487s14.172-1.853 18.483-3.487c3.702-1.403 6.627-2.513 13.166-2.513 6.538 0 9.464 1.109 13.166 2.513 4.312 1.635 9.197 3.487 18.484 3.487 9.286 0 14.172-1.853 18.483-3.487 3.702-1.403 6.627-2.513 13.166-2.513 6.54 0 9.465 1.109 13.169 2.513 4.311 1.635 9.197 3.487 18.484 3.487s14.174-1.853 18.485-3.487c3.704-1.403 6.629-2.513 13.169-2.513 4.143 0 7.5-3.357 7.5-7.5s-3.357-7.5-7.5-7.5c-9.287 0-14.174 1.853-18.485 3.487-3.704 1.403-6.629 2.513-13.169 2.513-6.539 0-9.464-1.109-13.167-2.513-4.312-1.635-9.198-3.487-18.486-3.487-9.287 0-14.173 1.853-18.484 3.487-3.702 1.404-6.627 2.513-13.165 2.513s-9.463-1.109-13.166-2.513c-4.312-1.635-9.197-3.487-18.484-3.487s-14.173 1.853-18.484 3.487c-3.702 1.404-6.627 2.513-13.165 2.513s-9.463-1.109-13.165-2.513c-4.312-1.635-9.197-3.487-18.483-3.487-4.143 0-7.5 3.357-7.5 7.5s3.357 7.5 7.5 7.5z"/>
        <path d="m503.759 394.009c-4.738-6.405-35.492-47.979-39.371-53.223-1.049-1.418-2.079-2.952-3.063-4.559-2.164-3.532-6.781-4.642-10.313-2.478s-4.642 6.781-2.478 10.313c1.211 1.977 2.487 3.875 3.795 5.642l11.748 15.881c-16.795 6.886-30.513 8.542-39.15 4.597-14.632-6.683-28.402-7.388-39.205-6.114l10.626-14.364c9.854-13.319 15.28-29.779 15.28-46.349v-45.235h25.42v45.235c0 2.938.176 5.946.521 8.941.476 4.114 4.194 7.069 8.311 6.59 4.114-.475 7.065-4.195 6.59-8.311-.28-2.426-.422-4.855-.422-7.221v-45.235h2.812c6.991 0 12.679-5.688 12.679-12.679v-13.498c0-6.991-5.688-12.679-12.679-12.679h-61.042c-6.991 0-12.679 5.688-12.679 12.679v13.498c0 6.991 5.688 12.679 12.679 12.679h2.811v45.235c0 13.38-4.382 26.672-12.339 37.429l-13.23 17.884c-2.031-10.927.388-16.448 3.646-23.815 3.171-7.17 7.118-16.094 7.118-30.812 0-15.868-2.871-24.263-5.403-31.67-2.364-6.913-4.597-13.442-4.597-26.817s2.232-19.904 4.597-26.816c2.532-7.406 5.403-15.801 5.403-31.669 0-15.867-2.871-24.262-5.403-31.668-2.364-6.912-4.597-13.441-4.597-26.815 0-10.194 4.318-18.099 8.494-25.741 6.206-11.36 13.931-25.498-2.156-41.583-16.085-16.085-30.223-8.362-41.585-2.155-7.644 4.176-15.547 8.494-25.743 8.494-13.376 0-19.905-2.232-26.818-4.597-7.407-2.532-15.803-5.403-31.672-5.403s-24.264 2.871-31.671 5.403c-6.912 2.364-13.441 4.597-26.816 4.597s-19.904-2.232-26.816-4.597c-7.406-2.532-15.802-5.403-31.67-5.403-15.867 0-24.262 2.871-31.668 5.403-6.912 2.364-13.44 4.597-26.814 4.597-10.195 0-18.099-4.318-25.742-8.494-11.36-6.206-25.495-13.93-41.582 2.156-16.089 16.088-8.364 30.226-2.158 41.585 4.176 7.645 8.494 15.548 8.494 25.744 0 13.38-2.233 19.912-4.597 26.829-.925 2.705-1.882 5.503-2.731 8.725-1.057 4.005 1.334 8.108 5.339 9.165 3.998 1.055 8.108-1.333 9.165-5.339.713-2.703 1.543-5.13 2.421-7.699 2.532-7.41 5.403-15.809 5.403-31.681 0-14.026-5.728-24.511-10.33-32.936-6.492-11.883-8.175-16.013-.401-23.787 7.772-7.773 11.903-6.089 23.782.401 8.425 4.603 18.909 10.331 32.935 10.331 15.867 0 24.262-2.871 31.668-5.403 6.912-2.364 13.44-4.597 26.814-4.597 13.375 0 19.904 2.232 26.816 4.597 7.406 2.532 15.802 5.403 31.67 5.403s24.263-2.871 31.67-5.403c6.913-2.364 13.442-4.597 26.817-4.597 13.376 0 19.905 2.232 26.818 4.597 7.407 2.532 15.803 5.403 31.672 5.403 14.026 0 24.511-5.728 32.936-10.33 11.879-6.493 16.011-8.178 23.787-.401 7.772 7.772 6.09 11.901-.402 23.783-4.603 8.424-10.33 18.908-10.33 32.934 0 15.868 2.871 24.263 5.403 31.669 2.364 6.912 4.597 13.441 4.597 26.814 0 13.374-2.232 19.903-4.597 26.815-2.532 7.406-5.403 15.802-5.403 31.67 0 15.869 2.871 24.264 5.403 31.671 2.364 6.913 4.597 13.441 4.597 26.816 0 11.55-2.835 17.959-5.836 24.745-4.036 9.125-8.21 18.561-3.812 36.69.223.917.455 2.034.699 3.2.429 2.046.87 4.142 1.378 5.952l-14.335 19.378c-4.563 6.169-7.226 13.274-7.956 20.563-7.322-3.198-16.297-6.049-26.123-6.049-15.867 0-24.262 2.871-31.668 5.403-6.912 2.364-13.441 4.597-26.815 4.597s-19.903-2.232-26.815-4.597c-7.406-2.532-15.802-5.403-31.67-5.403-15.869 0-24.264 2.871-31.671 5.403-6.913 2.364-13.441 4.597-26.816 4.597-13.376 0-19.905-2.232-26.818-4.597-7.407-2.532-15.803-5.403-31.672-5.403-14.026 0-24.512 5.729-32.936 10.331-11.884 6.492-16.012 8.174-23.787.401-7.772-7.771-6.09-11.901.401-23.783 4.603-8.425 10.331-18.909 10.331-32.935 0-15.867-2.871-24.262-5.403-31.668-2.364-6.912-4.597-13.44-4.597-26.814 0-13.375 2.232-19.904 4.597-26.816 2.532-7.406 5.403-15.802 5.403-31.67 0-15.869-2.869-24.269-5.4-31.679-1.833-5.368-3.564-10.438-4.264-18.549-.356-4.127-3.981-7.174-8.117-6.828-4.127.356-7.184 3.99-6.828 8.117.857 9.936 3.065 16.402 5.015 22.107 2.363 6.919 4.595 13.453 4.595 26.831 0 13.375-2.232 19.904-4.597 26.816-2.532 7.406-5.403 15.802-5.403 31.67 0 15.867 2.871 24.262 5.403 31.668 2.364 6.912 4.597 13.44 4.597 26.814 0 10.195-4.318 18.099-8.494 25.742-6.206 11.36-13.931 25.498 2.156 41.583 7.102 7.101 13.822 9.562 20.093 9.562 7.934 0 15.146-3.94 21.491-7.407 7.644-4.176 15.548-8.494 25.744-8.494 13.376 0 19.905 2.232 26.818 4.597 7.407 2.532 15.803 5.403 31.672 5.403 15.868 0 24.263-2.871 31.67-5.403 6.913-2.364 13.442-4.597 26.817-4.597s19.904 2.232 26.816 4.597c7.406 2.532 15.801 5.403 31.669 5.403s24.263-2.871 31.669-5.403c6.912-2.364 13.441-4.597 26.814-4.597 10.222 0 19.538 4.195 28.227 8.78.603 1.727 1.314 3.432 2.154 5.099 7.101 14.085 21.311 22.835 37.084 22.835h92.069c15.774 0 29.983-8.75 37.084-22.835 7.101-14.081 5.684-30.708-3.697-43.389zm-107.621-159.743h56.399v8.855h-56.399zm97.925 196.384c-4.605 9.134-13.461 14.587-23.69 14.587h-92.069c-10.229 0-19.085-5.453-23.69-14.587-4.604-9.134-3.721-19.497 2.362-27.721l14.737-19.922c5.326-2.273 24.988-9.228 46.982.821 5.113 2.335 10.927 3.501 17.417 3.501 10.608 0 23.028-3.12 37.144-9.335l18.445 24.935c6.083 8.224 6.966 18.587 2.362 27.721z"/>
    </g>
</svg>